<?xml version="1.0" standalone="no"?>
<!DOCTYPE svg PUBLIC "-//W3C//DTD SVG 20010904//EN"
 "http://www.w3.org/TR/2001/REC-SVG-20010904/DTD/svg10.dtd">
<svg version="1.0" xmlns="http://www.w3.org/2000/svg"
 width="1080.000000pt" height="1080.000000pt" viewBox="0 0 1080.000000 1080.000000"
 preserveAspectRatio="xMidYMid meet">
<metadata>
Created by potrace 1.14, written by Peter Selinger 2001-2017
</metadata>
<g transform="translate(0.000000,1080.000000) scale(0.100000,-0.100000)"
fill="#000000" stroke="none">
<path d="M2950 10512 c0 -4 -16 -8 -36 -8 -20 -1 -39 -5 -43 -10 -3 -5 -13
-10 -21 -12 -38 -8 -84 -37 -138 -90 -59 -58 -117 -154 -108 -179 3 -7 2 -13
-3 -13 -5 0 -14 -21 -21 -47 -7 -27 -17 -52 -21 -57 -5 -6 -9 -20 -9 -32 0
-13 -5 -26 -11 -29 -6 -4 -8 -13 -5 -21 3 -8 2 -14 -2 -14 -4 0 -8 -9 -9 -20
-1 -11 -8 -33 -16 -48 -7 -16 -13 -36 -11 -45 1 -9 -1 -17 -6 -17 -7 0 -25
-67 -22 -82 1 -5 -3 -8 -9 -8 -6 0 -9 -7 -5 -15 3 -8 2 -15 -3 -15 -4 0 -14
-25 -21 -55 -7 -30 -16 -55 -20 -55 -4 0 -7 -6 -7 -12 0 -7 -3 -28 -8 -46 -7
-31 -10 -33 -49 -32 -155 5 -736 -2 -732 -8 2 -4 -11 -7 -30 -6 -19 1 -34 -2
-34 -7 0 -5 -4 -8 -8 -7 -13 5 -82 -25 -82 -34 0 -5 -4 -6 -10 -3 -5 3 -10 -1
-10 -10 0 -9 -4 -14 -8 -11 -8 5 -50 -31 -93 -81 -24 -26 -81 -152 -74 -163 3
-5 1 -11 -3 -14 -12 -7 -13 -65 -15 -608 -1 -252 2 -458 6 -458 5 0 5 -5 2
-11 -10 -15 -11 -149 -2 -149 5 0 5 -5 2 -11 -10 -15 -11 -149 -2 -149 5 0 5
-5 2 -11 -10 -15 -11 -149 -2 -149 5 0 5 -5 2 -11 -10 -15 -11 -149 -2 -149 5
0 5 -5 2 -11 -10 -15 -11 -149 -2 -149 5 0 5 -5 2 -11 -10 -15 -11 -149 -2
-149 5 0 5 -5 2 -11 -10 -15 -11 -149 -2 -149 5 0 5 -5 2 -10 -3 -6 -7 -227
-9 -493 -2 -476 -4 -505 -26 -547 -6 -12 -9 -24 -6 -27 3 -3 -2 -12 -10 -21
-13 -12 -13 -16 -2 -23 11 -7 11 -9 0 -9 -7 0 -10 -4 -7 -10 3 -5 1 -10 -4
-10 -6 0 -11 -6 -11 -14 0 -8 -5 -27 -12 -43 -6 -15 -12 -32 -13 -38 -5 -33
-39 -135 -46 -135 -4 0 -5 -9 -2 -20 3 -11 0 -20 -6 -20 -6 0 -11 -8 -11 -17
0 -10 -11 -51 -25 -91 -14 -41 -22 -78 -19 -83 3 -5 1 -9 -4 -9 -5 0 -14 -19
-21 -42 -7 -24 -17 -53 -22 -66 -5 -13 -7 -27 -4 -32 3 -5 1 -10 -5 -12 -6 -2
-12 -13 -14 -24 -3 -12 -12 -44 -22 -70 -9 -27 -16 -57 -16 -67 0 -9 -3 -17
-7 -17 -7 0 -35 -89 -33 -102 1 -5 -3 -8 -9 -8 -5 0 -8 -4 -5 -8 3 -5 -8 -45
-23 -90 -16 -45 -26 -84 -23 -87 3 -3 -1 -5 -8 -5 -7 0 -11 -3 -8 -6 4 -3 0
-21 -8 -40 -8 -19 -12 -34 -10 -34 3 0 -1 -15 -9 -34 -8 -18 -11 -36 -8 -40 4
-3 1 -6 -5 -6 -7 0 -12 -7 -12 -15 0 -25 -24 -95 -33 -95 -5 0 -5 -5 -2 -10 3
-5 3 -16 -2 -22 -4 -7 -9 -19 -10 -26 -7 -30 -17 -59 -35 -102 -6 -14 -12 -32
-13 -40 -2 -15 -21 -82 -32 -110 -4 -8 -7 -17 -8 -20 -1 -3 -8 -25 -15 -50 -7
-25 -14 -47 -15 -50 -1 -3 -7 -18 -13 -33 -7 -16 -12 -35 -12 -43 0 -8 -4 -14
-9 -14 -5 0 -8 -6 -7 -13 2 -21 -36 -147 -44 -142 -4 3 -7 -3 -7 -13 2 -32
-26 -102 -37 -95 -7 4 -6 1 1 -7 11 -12 6 -33 -27 -100 -4 -8 -6 -25 -5 -37 1
-13 -2 -23 -6 -23 -8 0 -22 -38 -22 -62 0 -10 -4 -18 -9 -18 -6 0 -8 -7 -5
-15 4 -8 2 -17 -4 -20 -5 -4 -7 -11 -4 -16 4 -5 1 -9 -6 -9 -7 0 -10 -2 -7 -6
3 -3 -3 -27 -13 -53 -10 -27 -15 -51 -12 -55 4 -3 1 -6 -5 -6 -7 0 -12 -9 -12
-20 0 -10 -9 -42 -20 -70 -11 -27 -18 -50 -15 -50 2 0 0 -12 -6 -27 -6 -16
-12 -59 -14 -97 -5 -116 33 -217 113 -302 47 -51 112 -102 112 -88 0 4 8 0 18
-9 9 -8 31 -19 47 -23 17 -4 36 -11 43 -17 6 -5 12 -6 12 -2 0 4 7 2 15 -5 8
-7 15 -9 15 -4 0 4 5 3 11 -3 6 -6 18 -9 25 -6 8 3 14 0 14 -6 0 -6 3 -10 7
-10 17 3 72 -14 68 -21 -2 -3 6 -6 18 -5 12 1 35 -4 50 -12 15 -8 41 -15 56
-16 16 -1 27 -5 24 -10 -2 -4 3 -8 11 -8 17 -2 33 -5 41 -9 3 -1 8 -3 13 -5 4
-1 14 -5 22 -8 8 -4 24 -8 35 -10 11 -1 25 -5 30 -8 6 -3 30 -12 55 -19 25 -7
50 -18 57 -23 7 -5 16 -6 21 -3 26 16 30 -32 31 -384 1 -201 4 -378 7 -395 3
-16 6 -36 6 -42 1 -7 6 -13 12 -13 6 0 4 -5 -4 -10 -10 -6 -11 -10 -2 -10 6 0
11 -3 10 -7 -3 -14 39 -93 45 -86 4 3 7 0 7 -8 1 -17 64 -89 78 -89 5 0 13 -7
16 -16 3 -8 10 -13 15 -10 5 4 11 3 13 -2 1 -4 25 -20 52 -36 27 -16 45 -23
41 -16 -6 9 -2 9 16 -1 13 -7 40 -14 59 -15 19 -2 730 -3 1580 -4 l1545 -1 70
-24 c39 -14 71 -25 72 -25 4 -1 20 -6 68 -22 22 -7 45 -13 50 -14 6 0 17 -4
25 -7 50 -22 324 -108 348 -109 6 -1 12 -5 12 -8 0 -7 19 -13 80 -26 8 -1 23
-7 35 -13 17 -9 101 -33 115 -33 3 0 13 -6 24 -13 10 -8 25 -11 32 -8 8 3 14
0 14 -6 0 -7 6 -11 13 -10 16 3 107 -24 107 -31 0 -5 22 -10 63 -13 9 -1 17
-4 17 -7 0 -4 23 -13 50 -20 28 -7 50 -16 50 -20 0 -3 10 -7 23 -7 12 -1 83
-22 157 -48 141 -48 167 -56 188 -57 6 -1 12 -5 12 -10 0 -4 3 -7 8 -6 4 1 25
-4 47 -10 22 -6 45 -12 50 -13 6 0 15 -4 20 -8 10 -8 60 -24 80 -26 6 0 20 -6
33 -13 12 -7 22 -10 22 -6 0 3 7 1 15 -6 8 -7 15 -10 15 -7 0 3 24 -4 53 -14
28 -11 63 -22 76 -25 13 -3 32 -9 43 -15 10 -5 18 -7 18 -3 0 3 6 2 13 -3 6
-5 32 -15 57 -22 25 -8 52 -16 60 -19 8 -3 18 -4 23 -4 4 1 7 -3 7 -9 0 -5 5
-7 10 -4 6 4 17 1 25 -5 8 -7 15 -9 15 -5 0 4 7 2 15 -5 8 -7 15 -10 15 -7 0
3 16 -1 35 -9 20 -8 40 -12 45 -9 4 3 10 1 12 -5 1 -5 12 -11 23 -13 11 -2 28
-7 37 -11 9 -4 22 -9 30 -10 7 -2 20 -6 28 -9 25 -10 364 -118 385 -123 47
-12 165 -13 165 -2 0 7 5 6 15 -2 11 -9 15 -9 15 -1 0 7 6 11 13 10 18 -3 127
42 127 52 0 4 14 12 30 19 17 7 28 15 26 18 -3 2 5 13 19 23 13 11 34 36 46
57 13 20 28 40 33 44 6 4 7 8 2 8 -5 0 -3 7 4 15 7 8 9 15 5 15 -4 0 0 11 8
24 9 13 18 35 21 48 2 12 9 37 16 53 6 17 11 30 10 30 -1 0 3 13 9 28 6 15 14
40 17 55 4 15 11 33 17 39 5 7 7 13 3 13 -4 0 0 14 9 30 9 17 13 30 10 30 -3
0 1 15 9 34 8 19 12 37 8 40 -3 3 -1 6 5 6 5 0 10 6 11 13 2 22 7 42 15 54 5
7 5 13 1 13 -3 0 -1 7 6 15 7 8 10 15 6 15 -3 0 3 21 13 47 10 27 19 50 19 53
0 3 5 17 11 33 l11 27 380 1 c414 2 390 1 408 12 6 5 16 6 21 3 5 -3 22 1 37
9 16 8 35 15 42 15 6 0 12 5 12 10 0 6 6 10 13 10 8 0 25 9 38 20 61 52 89 80
89 90 0 5 4 10 8 10 9 0 47 71 44 83 -1 4 2 7 6 7 5 0 9 6 10 13 0 6 3 22 6
35 13 48 15 63 17 130 1 38 -1 74 -5 80 -4 7 -4 12 1 12 9 0 8 294 -2 309 -3
6 -3 11 2 11 9 0 8 214 -2 229 -3 6 -3 11 2 11 9 0 8 214 -2 229 -3 6 -3 11 2
11 9 0 8 214 -2 229 -3 6 -3 11 2 11 9 0 8 214 -2 229 -3 6 -3 11 2 11 9 0 8
294 -2 309 -3 6 -3 11 2 11 9 0 8 214 -2 229 -3 6 -3 11 2 11 9 0 8 214 -2
229 -3 6 -3 11 2 11 9 0 8 214 -2 229 -3 6 -3 11 2 11 9 0 8 214 -2 229 -3 6
-3 11 2 11 9 0 8 294 -2 309 -3 6 -3 11 2 11 4 0 7 19 7 42 -1 24 2 52 7 63
14 38 22 60 25 75 11 46 41 130 45 125 3 -3 5 5 4 18 -1 12 3 25 8 29 5 3 11
17 11 30 1 12 4 28 7 33 4 6 10 24 14 40 12 44 12 45 15 50 1 3 4 10 5 15 1 6
4 12 5 15 1 3 3 8 5 13 1 4 4 14 8 22 16 41 67 205 67 217 0 8 3 12 8 10 4 -3
8 5 8 16 2 26 7 42 22 80 7 16 12 35 12 43 0 8 5 14 11 14 5 0 8 4 4 10 -3 5
1 25 9 45 8 19 15 36 14 38 -3 7 38 123 44 125 5 2 6 7 3 11 -2 5 4 31 14 59
10 28 16 53 13 56 -3 3 -1 6 5 6 5 0 10 6 11 13 3 31 7 52 12 57 8 7 45 133
42 143 -1 4 2 7 6 7 7 0 24 53 38 113 1 4 3 10 4 15 1 4 2 10 1 15 0 4 3 7 9
7 6 0 9 3 9 8 -1 4 0 10 1 15 1 4 3 10 4 15 12 52 31 112 36 112 3 0 6 8 7 18
1 9 14 51 28 92 14 41 28 84 31 95 8 30 10 39 17 55 10 27 30 95 29 100 0 3 3
10 8 15 4 6 11 26 15 45 4 19 11 40 15 45 4 6 11 29 15 53 4 23 10 40 14 37 4
-2 8 1 8 8 0 7 6 32 13 57 7 25 12 47 12 50 0 3 3 10 7 15 4 6 14 31 21 58 7
26 16 50 21 53 4 2 6 11 2 19 -3 8 -1 15 4 15 5 0 9 8 9 18 1 9 22 80 49 157
26 77 49 148 51 158 2 9 7 27 10 40 5 18 7 97 4 195 0 12 -4 22 -8 22 -5 0 -9
6 -9 13 0 20 -44 107 -54 107 -5 0 -9 6 -9 13 0 16 -83 94 -117 110 -13 5 -23
14 -23 19 0 5 -3 7 -8 5 -4 -3 -24 3 -44 13 -33 16 -71 29 -106 36 -8 1 -21 6
-30 10 -9 4 -19 8 -22 9 -61 19 -96 28 -102 27 -5 -1 -8 3 -8 9 0 6 -9 9 -20
6 -11 -3 -20 -1 -20 4 0 5 -3 8 -7 7 -5 0 -17 2 -28 6 -43 17 -51 19 -65 22
-49 10 -159 52 -153 58 4 4 0 4 -9 1 -10 -4 -23 -3 -30 1 -7 5 -17 9 -23 10
-5 1 -23 7 -38 13 l-28 11 2 154 c1 84 -1 159 -5 165 -4 6 -4 11 1 11 9 0 8
214 -2 229 -3 6 -3 11 2 11 4 0 8 29 8 65 0 36 -2 65 -5 65 -3 0 -4 20 -3 45
0 25 -3 45 -7 45 -5 0 -7 9 -5 20 2 11 1 20 -3 20 -4 0 -8 9 -9 20 -2 24 -69
127 -103 157 -48 43 -55 48 -62 46 -5 -2 -8 1 -8 6 0 10 -73 46 -117 58 -15 4
-728 9 -1583 10 -855 1 -1574 5 -1597 8 -24 4 -43 10 -43 15 0 5 -7 7 -15 4
-8 -4 -15 -2 -15 2 0 5 -14 10 -31 11 -17 1 -36 6 -43 11 -12 10 -96 34 -110
32 -5 -1 -12 2 -15 7 -6 9 -113 44 -138 46 -7 0 -13 3 -13 7 0 4 -6 7 -12 8
-45 6 -58 10 -72 21 -9 8 -16 11 -16 7 0 -3 -16 0 -35 8 -19 8 -35 12 -35 9 0
-3 -6 -1 -12 5 -7 6 -17 11 -23 12 -5 2 -14 4 -20 6 -5 1 -28 8 -50 14 -22 6
-49 15 -60 20 -19 9 -94 30 -124 36 -8 1 -17 7 -20 12 -3 5 -14 8 -23 6 -10
-1 -18 3 -18 9 0 5 -3 8 -6 4 -4 -3 -22 0 -40 8 -19 8 -34 11 -34 8 0 -3 -6 0
-13 6 -8 6 -17 8 -20 4 -4 -3 -7 -1 -7 5 0 6 -9 9 -20 7 -11 -2 -20 1 -20 7 0
6 -3 9 -6 5 -4 -3 -19 0 -35 9 -16 8 -29 13 -29 10 0 -2 -29 6 -65 19 -36 13
-65 21 -65 18 0 -3 -6 0 -13 6 -8 6 -23 12 -35 14 -12 2 -25 6 -28 10 -4 4
-18 7 -31 7 -13 0 -23 4 -23 9 0 5 -8 8 -17 7 -9 -2 -28 3 -42 11 -15 7 -34
13 -44 13 -10 0 -16 4 -13 9 4 5 -2 7 -13 4 -10 -3 -22 0 -25 6 -4 5 -13 8
-21 4 -8 -3 -15 0 -15 7 0 7 -7 10 -15 7 -8 -4 -17 -2 -19 2 -6 8 -64 25 -78
22 -5 0 -8 3 -8 7 0 5 -6 9 -12 10 -23 1 -54 10 -92 26 -21 9 -42 13 -47 10
-5 -3 -9 0 -9 6 0 6 -4 9 -9 5 -5 -3 -13 0 -16 6 -4 5 -13 8 -21 5 -8 -3 -14
-2 -14 3 0 4 -6 8 -12 9 -21 2 -41 7 -73 19 -16 6 -39 15 -50 19 -11 4 -26 6
-32 5 -7 -1 -13 4 -13 10 0 7 -3 10 -6 6 -3 -3 -25 1 -47 10 -46 16 -76 24
-94 25 -7 1 -13 5 -13 10 0 4 -8 8 -18 8 -9 0 -47 11 -85 24 -37 14 -67 22
-67 19 0 -3 -6 -1 -12 4 -7 6 -31 16 -53 22 -22 7 -47 15 -55 18 -8 3 -23 8
-32 9 -9 2 -36 11 -60 19 -24 9 -50 18 -58 20 -8 2 -15 4 -15 5 0 1 -8 3 -18
5 -10 2 -26 7 -35 11 -21 9 -40 14 -74 21 -15 3 -26 8 -24 12 3 4 -5 8 -17 9
-132 9 -177 10 -177 4z"/>
</g>
</svg>
